<svg width="44" height="44" viewBox="0 0 44 44" fill="none" xmlns="http://www.w3.org/2000/svg">
<path d="M32.0833 8.25C28.5083 8.25 24.6583 8.98333 22 11C19.3417 8.98333 15.4917 8.25 11.9167 8.25C9.25834 8.25 6.435 8.65333 4.07 9.69833C2.73167 10.3033 1.83334 11.605 1.83334 13.09V33.77C1.83334 36.1533 4.07 37.9133 6.38 37.3267C8.17667 36.8683 10.0833 36.6667 11.9167 36.6667C14.7767 36.6667 17.82 37.1433 20.2767 38.3533C21.3767 38.9033 22.6233 38.9033 23.705 38.3533C26.1617 37.125 29.205 36.6667 32.065 36.6667C33.8983 36.6667 35.805 36.8683 37.6017 37.3267C39.9117 37.9317 42.1483 36.1717 42.1483 33.77V13.09C42.1483 11.605 41.25 10.3033 39.9117 9.69833C37.565 8.65333 34.7417 8.25 32.0833 8.25ZM38.5 31.5883C38.5 32.7433 37.4367 33.5867 36.3 33.385C34.925 33.1283 33.495 33.0183 32.0833 33.0183C28.9667 33.0183 24.475 34.21 22 35.7683V14.6667C24.475 13.1083 28.9667 11.9167 32.0833 11.9167C33.77 11.9167 35.4383 12.0817 37.0333 12.43C37.8767 12.6133 38.5 13.365 38.5 14.2267V31.5883Z" fill="#036B3F"/>
<path d="M25.63 20.185C25.0433 20.185 24.5117 19.8183 24.3283 19.2317C24.09 18.5167 24.4933 17.7283 25.2083 17.5083C28.0317 16.5917 31.68 16.2983 35.035 16.6833C35.7867 16.775 36.3367 17.4533 36.245 18.205C36.1533 18.9567 35.475 19.5067 34.7233 19.415C31.7533 19.0667 28.5083 19.3417 26.0517 20.13C25.905 20.1483 25.7583 20.185 25.63 20.185Z" fill="#036B3F"/>
<path d="M25.63 25.0617C25.0433 25.0617 24.5117 24.695 24.3283 24.1083C24.09 23.3933 24.4933 22.605 25.2083 22.385C28.0133 21.4683 31.68 21.175 35.035 21.56C35.7867 21.6517 36.3367 22.33 36.245 23.0817C36.1533 23.8333 35.475 24.3833 34.7233 24.2917C31.7533 23.9433 28.5083 24.2183 26.0517 25.0067C25.905 25.0433 25.7583 25.0617 25.63 25.0617Z" fill="#036B3F"/>
<path d="M25.63 29.9383C25.0433 29.9383 24.5117 29.5717 24.3283 28.985C24.09 28.27 24.4933 27.4817 25.2083 27.2617C28.0133 26.345 31.68 26.0517 35.035 26.4367C35.7867 26.5283 36.3367 27.2067 36.245 27.9583C36.1533 28.71 35.475 29.2417 34.7233 29.1683C31.7533 28.82 28.5083 29.095 26.0517 29.8833C25.905 29.92 25.7583 29.9383 25.63 29.9383Z" fill="#036B3F"/>
</svg>
