<svg width="45" height="44" viewBox="0 0 45 44" fill="none" xmlns="http://www.w3.org/2000/svg">
<path d="M31.5 3.66666C30.4917 3.66666 29.6667 4.49166 29.6667 5.49999V7.33332H15V5.49999C15 4.49166 14.175 3.66666 13.1667 3.66666C12.1583 3.66666 11.3333 4.49166 11.3333 5.49999V7.33332H9.50001C7.46501 7.33332 5.85168 8.98332 5.85168 11L5.83334 36.6667C5.83334 38.6833 7.46501 40.3333 9.50001 40.3333H35.1667C37.1833 40.3333 38.8333 38.6833 38.8333 36.6667V11C38.8333 8.98332 37.1833 7.33332 35.1667 7.33332H33.3333V5.49999C33.3333 4.49166 32.5083 3.66666 31.5 3.66666ZM35.1667 36.6667H9.50001V18.3333H35.1667V36.6667ZM20.5 23.8333C20.5 22.825 21.325 22 22.3333 22C23.3417 22 24.1667 22.825 24.1667 23.8333C24.1667 24.8417 23.3417 25.6667 22.3333 25.6667C21.325 25.6667 20.5 24.8417 20.5 23.8333ZM13.1667 23.8333C13.1667 22.825 13.9917 22 15 22C16.0083 22 16.8333 22.825 16.8333 23.8333C16.8333 24.8417 16.0083 25.6667 15 25.6667C13.9917 25.6667 13.1667 24.8417 13.1667 23.8333ZM27.8333 23.8333C27.8333 22.825 28.6583 22 29.6667 22C30.675 22 31.5 22.825 31.5 23.8333C31.5 24.8417 30.675 25.6667 29.6667 25.6667C28.6583 25.6667 27.8333 24.8417 27.8333 23.8333ZM20.5 31.1667C20.5 30.1583 21.325 29.3333 22.3333 29.3333C23.3417 29.3333 24.1667 30.1583 24.1667 31.1667C24.1667 32.175 23.3417 33 22.3333 33C21.325 33 20.5 32.175 20.5 31.1667ZM13.1667 31.1667C13.1667 30.1583 13.9917 29.3333 15 29.3333C16.0083 29.3333 16.8333 30.1583 16.8333 31.1667C16.8333 32.175 16.0083 33 15 33C13.9917 33 13.1667 32.175 13.1667 31.1667ZM27.8333 31.1667C27.8333 30.1583 28.6583 29.3333 29.6667 29.3333C30.675 29.3333 31.5 30.1583 31.5 31.1667C31.5 32.175 30.675 33 29.6667 33C28.6583 33 27.8333 32.175 27.8333 31.1667Z" fill="#036B3F"/>
</svg>
