<svg width="48" height="48" viewBox="0 0 48 48" fill="none" xmlns="http://www.w3.org/2000/svg">
<path d="M11.5556 36.4444H14.0889L31.4667 19.0667L28.9333 16.5333L11.5556 33.9111V36.4444ZM8 40V32.4444L31.4667 9.02222C31.8222 8.6963 32.2148 8.44444 32.6444 8.26667C33.0741 8.08889 33.5259 8 34 8C34.4741 8 34.9333 8.08889 35.3778 8.26667C35.8222 8.44444 36.2074 8.71111 36.5333 9.06667L38.9778 11.5556C39.3333 11.8815 39.5926 12.2667 39.7556 12.7111C39.9185 13.1556 40 13.6 40 14.0444C40 14.5185 39.9185 14.9704 39.7556 15.4C39.5926 15.8296 39.3333 16.2222 38.9778 16.5778L15.5556 40H8ZM30.1778 17.8222L28.9333 16.5333L31.4667 19.0667L30.1778 17.8222Z" fill="#656F76"/>
</svg>
