<svg width="45" height="44" viewBox="0 0 45 44" fill="none" xmlns="http://www.w3.org/2000/svg">
<path d="M9.83335 24.1633V29.315C9.83335 30.6533 10.5667 31.9 11.74 32.5417L20.9067 37.5467C22.0067 38.1517 23.3267 38.1517 24.4267 37.5467L33.5933 32.5417C34.7667 31.9 35.5 30.6533 35.5 29.315V24.1633L24.4267 30.2133C23.3267 30.8183 22.0067 30.8183 20.9067 30.2133L9.83335 24.1633ZM20.9067 6.45334L5.45168 14.8867C4.18668 15.5833 4.18668 17.4167 5.45168 18.1133L20.9067 26.5467C22.0067 27.1517 23.3267 27.1517 24.4267 26.5467L39.1667 18.4983V29.3333C39.1667 30.3417 39.9917 31.1667 41 31.1667C42.0083 31.1667 42.8333 30.3417 42.8333 29.3333V17.5817C42.8333 16.9033 42.4667 16.2983 41.88 15.9683L24.4267 6.45334C23.3267 5.86667 22.0067 5.86667 20.9067 6.45334Z" fill="#036B3F"/>
</svg>
