<svg width="32" height="32" viewBox="0 0 32 32" fill="none" xmlns="http://www.w3.org/2000/svg">
<path d="M16.1023 3.99744C16.1137 3.99746 16.126 3.99749 16.1391 3.99752L16.2807 3.99796C17.9243 4.004 26.2545 4.06438 28.5005 4.6682C29.8774 5.03749 30.9615 6.1258 31.3295 7.50727C31.5321 8.26626 31.6733 9.27506 31.7717 10.3126L31.7908 10.5204C31.8063 10.6938 31.8206 10.8676 31.8339 11.0407L31.8492 11.2481C31.9807 13.0763 31.996 14.7871 31.9978 15.1614L31.998 15.2119C31.998 15.2161 31.998 15.2228 31.998 15.2228V15.2512C31.998 15.2512 31.998 15.2579 31.998 15.2621L31.9978 15.3126C31.996 15.701 31.9795 17.5288 31.8339 19.4334L31.8175 19.6414L31.8 19.8496C31.7009 20.9948 31.5524 22.1319 31.3295 22.9667C30.9615 24.3482 29.8774 25.4368 28.5005 25.8058C26.1797 26.43 17.3622 26.4737 16.1391 26.4767L16.0449 26.4769C16.0372 26.4769 16.0304 26.4769 16.0246 26.4769L15.9861 26.4769C15.9861 26.4769 15.9773 26.4769 15.9715 26.4769L15.8569 26.4767C15.2388 26.4752 12.6811 26.4633 10.0026 26.3713L9.66014 26.3591C9.603 26.357 9.54584 26.3548 9.48868 26.3527L9.14583 26.3391L8.80376 26.3246C6.58475 26.2272 4.46905 26.0675 3.49578 25.8058C2.11894 25.4368 1.03474 24.3482 0.666759 22.9667C0.443826 22.1319 0.295204 20.9948 0.196123 19.8496L0.178649 19.6414L0.162233 19.4334C0.0218067 17.598 0.00142223 15.834 -0.00153681 15.3606L-0.0018904 15.2928C-0.00191522 15.2867 -0.00193589 15.2811 -0.00195312 15.276V15.198C-0.00193589 15.1929 -0.00191522 15.1873 -0.0018904 15.1812L-0.00153681 15.1134C0.00114308 14.6846 0.0181157 13.1974 0.125609 11.5572L0.139522 11.3515C0.141922 11.3171 0.144362 11.2826 0.146843 11.2481L0.162233 11.0407C0.175481 10.8676 0.189797 10.6938 0.205268 10.5204L0.224392 10.3126C0.322841 9.27506 0.464093 8.26626 0.666759 7.50727C1.03474 6.1258 2.11894 5.03749 3.49578 4.6682C4.46905 4.40655 6.58475 4.24694 8.80376 4.14958L9.14583 4.13508L9.48868 4.12154C9.54584 4.11936 9.603 4.11722 9.66014 4.11511L10.0026 4.10294C12.5102 4.01686 14.9118 4.00091 15.7153 3.99796L15.8569 3.99752C15.8701 3.99749 15.8823 3.99746 15.8937 3.99744H16.1023ZM12.7981 10.4198V20.0542L21.1116 15.2373L12.7981 10.4198Z" fill="#656F76"/>
</svg>
